<svg width="779" height="139" viewBox="0 0 779 139" fill="none" xmlns="http://www.w3.org/2000/svg">
<path d="M0 0H779V131H0V0Z" fill="#C8F728"/>
<path d="M514.84 101.984L523.672 100.544V30.656L514.84 29.312V27.2H544.12C551.032 27.2 556.536 27.84 560.632 29.12C564.728 30.4 567.704 32.352 569.56 34.976C571.416 37.536 572.344 40.928 572.344 45.152C572.344 54.368 566.52 60.256 554.872 62.816V63.296C561.976 64.256 567.48 66.368 571.384 69.632C575.352 72.896 577.336 77.44 577.336 83.264C577.336 90.304 574.744 95.52 569.56 98.912C564.44 102.304 557.496 104 548.728 104H514.84V101.984ZM544.888 62.528C550.008 62.528 553.944 61.088 556.696 58.208C559.448 55.328 560.824 51.232 560.824 45.92V45.344C560.824 34.848 555.256 29.6 544.12 29.6H534.232V62.528H544.888ZM548.728 101.696C554.168 101.696 558.392 100.128 561.4 96.992C564.408 93.792 565.912 89.248 565.912 83.36V82.304C565.912 76.48 564.408 72.128 561.4 69.248C558.456 66.368 554.232 64.928 548.728 64.928H534.232V101.696H548.728Z" fill="#161E22"/>
<path d="M592.84 104V101.984L601.672 100.544V30.656L592.84 29.312V27.2H621.064V29.312L612.232 30.656V100.544L621.064 101.984V104H592.84Z" fill="black"/>
<path d="M650.488 104V101.984L659.32 100.544V29.6H643.48L636.184 48.608H633.4V27.2H695.896V48.608H693.016L685.816 29.6H669.88V100.544L678.712 101.984V104H650.488Z" fill="black"/>
<path d="M739.272 105.92C733.32 105.92 727.464 104.224 721.704 100.832L713.544 104.96H711.432V80.288H713.544L721.8 98.144C727.112 101.92 733.192 103.808 740.04 103.808C745.672 103.808 750.312 102.336 753.96 99.392C757.672 96.384 759.528 92.192 759.528 86.816C759.528 82.912 758.344 79.84 755.976 77.6C753.608 75.296 749.768 73.472 744.456 72.128L728.52 68C722.952 66.528 718.76 64.032 715.944 60.512C713.128 56.928 711.72 52.704 711.72 47.84C711.72 43.424 712.584 39.52 714.312 36.128C716.104 32.672 718.696 30.016 722.088 28.16C725.48 26.24 729.512 25.28 734.184 25.28C740.008 25.28 745.224 26.272 749.832 28.256L756.84 25.28H758.952V44.864H756.84L749.928 30.848C745.128 28.544 739.912 27.392 734.28 27.392C728.712 27.392 724.328 28.832 721.128 31.712C717.928 34.528 716.328 38.272 716.328 42.944C716.328 46.4 717.448 49.12 719.688 51.104C721.992 53.088 725.352 54.656 729.768 55.808L746.952 60.32C752.52 61.728 756.648 64.16 759.336 67.616C762.088 71.008 763.464 76.192 763.464 83.168C763.464 90.272 761.256 95.84 756.84 99.872C752.488 103.904 746.632 105.92 739.272 105.92Z" fill="black"/>
<path d="M76.16 103V100.984L67.328 99.544V29.656L76.16 28.312V26.2H18.368V48.184H20.96L28.352 28.6H56.768V63.16H44.288L38.624 49.24H36.128V79.576H38.624L44.384 65.464H56.768V100.696H26.624L18.752 79.576H16.256V103H76.16Z" fill="#161E22"/>
<path d="M90.128 26V28.016L99.056 31.856V96.944L90.128 100.688V102.8H107.984L149.36 44.816V96.944L140.432 100.688V102.8H160.88V100.688L151.76 96.944V26H149.36L101.456 93.296V31.856L110.672 28.016V26H90.128Z" fill="black"/>
<path d="M174.84 103V100.984L183.672 99.544V29.656L174.84 28.312V26.2H203.064V28.312L194.232 29.656V99.544L203.064 100.984V103H174.84Z" fill="black"/>
<path d="M252.936 104.92C245.96 104.92 239.848 103.224 234.6 99.832C229.352 96.44 225.288 91.704 222.408 85.624C219.592 79.544 218.184 72.536 218.184 64.6C218.184 56.664 219.688 49.656 222.696 43.576C225.704 37.496 229.896 32.76 235.272 29.368C240.712 25.976 246.92 24.28 253.896 24.28C260.488 24.28 266.056 25.944 270.6 29.272L276.456 24.28H278.472V48.088H276.456L270.12 32.248C265.512 28.408 260.104 26.488 253.896 26.488C249.416 26.488 245.384 27.64 241.8 29.944C238.28 32.248 235.496 35.608 233.448 40.024C231.464 44.44 230.472 49.688 230.472 55.768V73.336C230.472 79.416 231.4 84.664 233.256 89.08C235.176 93.496 237.8 96.888 241.128 99.256C244.52 101.56 248.456 102.712 252.936 102.712C258.44 102.712 262.696 101.016 265.704 97.624C268.776 94.232 270.312 89.688 270.312 83.992V75.064L261.384 73.72V71.608H290.088V73.72L281.16 75.064V83.992C281.16 87.64 280.168 91.064 278.184 94.264C276.2 97.4 273.096 99.96 268.872 101.944C264.648 103.928 259.336 104.92 252.936 104.92Z" fill="black"/>
<path d="M334.776 103.96L306.168 29.656V97.144L315.384 100.984V103H294.84V100.984L303.864 97.144V29.656L295.032 28.312V26.2H316.248L340.344 87.832L364.92 26.2H384.312V28.312L375.48 29.656V99.544L384.312 100.984V103H356.088V100.984L364.92 99.544V32.536L336.504 103.96H334.776Z" fill="black"/>
<path d="M392.312 103V100.984L401.72 97.144L429.464 24.28H431L457.208 99.544L466.04 100.984V103H437.816V100.984L445.688 99.736L437.528 76.984H411.992L404.216 97.144L412.856 100.984V103H392.312ZM412.76 74.968H436.856L425.336 41.176L412.76 74.968Z" fill="black"/>
</svg>
